<svg width="24" height="24" viewBox="0 0 24 24" fill="none" xmlns="http://www.w3.org/2000/svg">
<path d="M21.4103 19.7262C21.3111 19.6992 21.1908 19.7142 21.0525 19.7652C19.2005 20.6122 17.3996 21.2159 15.6497 21.5733C11.8705 22.3421 8.18748 21.9397 4.60366 20.3689C3.60849 19.9304 2.22548 19.1916 0.454619 18.1464C0.408989 18.1104 0.353323 18.0894 0.295272 18.0863C0.23514 18.0833 0.184029 18.0894 0.135924 18.1134C0.0878194 18.1374 0.0517406 18.1674 0.0246816 18.2065C-0.00237735 18.2455 -0.00839027 18.2996 0.0126556 18.3687C0.0306949 18.4347 0.0757932 18.5098 0.150957 18.5909C0.463639 18.9573 0.851484 19.3478 1.31149 19.7622C1.77149 20.1767 2.38182 20.6452 3.14248 21.1678C3.90314 21.6904 4.69987 22.1559 5.52668 22.5614C6.35649 22.9668 7.31858 23.3092 8.41597 23.5855C9.51337 23.8618 10.6108 24 11.7051 24C12.7935 24 13.8518 23.8889 14.8771 23.6726C15.9053 23.4534 16.7712 23.1951 17.4777 22.8948C18.1813 22.5974 18.8307 22.264 19.426 21.9036C20.0213 21.5432 20.4602 21.2369 20.7459 20.9936C21.0315 20.7473 21.2359 20.5551 21.3532 20.411C21.4915 20.2398 21.5606 20.0926 21.5606 19.9635C21.5636 19.8283 21.5095 19.7502 21.4103 19.7262V19.7262ZM12.4628 7.08797C12.0058 7.12702 11.4556 7.21111 10.8092 7.33725C10.1628 7.46039 9.56448 7.61657 9.01127 7.79977C8.45807 7.98298 7.89283 8.23827 7.31858 8.56263C6.74132 8.887 6.25126 9.25942 5.84537 9.67388C5.43949 10.0883 5.10877 10.6079 4.8502 11.2356C4.59164 11.8603 4.46236 12.5481 4.46236 13.299C4.46236 14.1129 4.60366 14.8367 4.89229 15.4764C5.17792 16.1161 5.55975 16.6177 6.0408 16.9901C6.51884 17.3625 7.06303 17.6539 7.66434 17.8671C8.26565 18.0803 8.90304 18.1764 9.56448 18.1494C10.2259 18.1224 10.8723 18.0203 11.5007 17.8401C12.1261 17.6629 12.7153 17.3775 13.2625 16.9901C13.8097 16.6027 14.2577 16.1432 14.6095 15.6176C14.7388 15.8158 14.853 15.963 14.9552 16.0591L15.2168 16.3264C15.3912 16.5036 15.6588 16.7649 16.0196 17.1102C16.3773 17.4556 16.7441 17.792 17.1109 18.1224L20.2498 15.122L20.0694 14.9748C19.9401 14.8757 19.7868 14.7346 19.6124 14.5454C19.438 14.3592 19.2636 14.1519 19.0953 13.9297C18.9239 13.7074 18.7766 13.4461 18.6533 13.1518C18.53 12.8575 18.4669 12.5721 18.4669 12.2958V4.40295C18.4669 4.09961 18.4098 3.77224 18.2955 3.41784C18.1783 3.06645 17.9738 2.68202 17.6732 2.26755C17.3725 1.85308 16.9997 1.48067 16.5547 1.1563C16.1067 0.831936 15.5114 0.555625 14.7628 0.333375C14.0172 0.111125 13.1814 0 12.2614 0C11.3203 0 10.4454 0.111125 9.62762 0.327368C8.81284 0.546615 8.11532 0.837943 7.53205 1.20435C6.95178 1.57077 6.4527 1.99424 6.03779 2.47779C5.62289 2.96133 5.31321 3.4659 5.11177 3.99149C4.91033 4.51708 4.80811 5.04868 4.80811 5.58628L8.87297 5.94369C9.03833 5.45113 9.26082 5.02465 9.53441 4.65824C9.81102 4.29183 10.0726 4.02753 10.3101 3.86235C10.5506 3.69716 10.8092 3.56501 11.0828 3.4659C11.3594 3.36679 11.5458 3.31573 11.642 3.30372C11.7382 3.29471 11.8134 3.2917 11.8705 3.2917C12.6733 3.2917 13.2295 3.52897 13.5422 4.0005C13.7376 4.28582 13.8338 4.71831 13.8338 5.30096V7.00088C13.3768 7.0189 12.9198 7.04893 12.4628 7.08797V7.08797ZM13.8368 11.6501C13.8368 12.1487 13.7706 12.6022 13.6414 13.0016C13.3648 13.8756 12.8386 14.4252 12.0659 14.6475C11.3925 14.8457 10.7521 14.7466 10.1447 14.3531C9.49833 13.9327 9.17663 13.338 9.17663 12.5721C9.17663 11.9745 9.32696 11.4639 9.62762 11.0374C9.92827 10.6139 10.3281 10.2956 10.8302 10.0853C11.3323 9.87511 11.8224 9.72494 12.3034 9.63784C12.7815 9.54774 13.2956 9.49368 13.8368 9.47566V11.6501V11.6501ZM23.9148 18.2245C23.7855 18.0623 23.4367 17.9572 22.8655 17.9031C22.2942 17.8491 21.7981 17.8521 21.3712 17.9152C20.9112 17.9692 20.4362 18.1014 19.9491 18.3176C19.459 18.5308 19.2456 18.711 19.2997 18.8522L19.3207 18.8913L19.3478 18.9123L19.3899 18.9183H19.5282C19.5523 18.9183 19.5823 18.9153 19.6244 18.9123C19.6665 18.9093 19.7056 18.9033 19.7417 18.9003C19.7777 18.8973 19.8289 18.8913 19.895 18.8882C19.9581 18.8852 20.0183 18.8762 20.0754 18.8672C20.0844 18.8672 20.1866 18.8582 20.3851 18.8402C20.5835 18.8222 20.7278 18.8102 20.815 18.8011C20.9022 18.7921 21.0495 18.7831 21.251 18.7741C21.4524 18.7651 21.6147 18.7651 21.735 18.7741C21.8553 18.7831 21.9906 18.7951 22.1439 18.8072C22.2972 18.8192 22.4205 18.8462 22.5167 18.8882C22.6129 18.9273 22.6851 18.9783 22.7302 19.0414C22.8865 19.2396 22.8565 19.6781 22.64 20.3599C22.4235 21.0417 22.2191 21.5853 22.0266 21.9877C21.9425 22.1589 21.9425 22.264 22.0266 22.3091C22.1108 22.3541 22.2281 22.3121 22.3844 22.189C22.8534 21.8226 23.2443 21.2699 23.56 20.5281C23.7434 20.0896 23.8757 19.6331 23.9538 19.1556C24.026 18.678 24.014 18.3687 23.9148 18.2245V18.2245Z" fill="#202A35"/>
</svg>
