<svg width="24" height="24" viewBox="0 0 24 24" fill="none" xmlns="http://www.w3.org/2000/svg">
<path d="M12.0011 1.59401C2.7311 1.59101 -1.9119 12.797 4.6411 19.352C6.09587 20.8072 7.9495 21.7982 9.96756 22.1999C11.9856 22.6015 14.0774 22.3956 15.9785 21.6083C17.8796 20.821 19.5044 19.4877 20.6477 17.7769C21.7909 16.0661 22.4011 14.0546 22.4011 11.997C22.4011 6.25301 17.7461 1.59601 12.0011 1.59401V1.59401ZM6.1101 6.78301C6.6111 4.18501 10.0031 3.48901 11.4861 5.68001C12.9691 7.87001 11.0641 10.762 8.4661 10.262C8.08291 10.1884 7.71797 10.04 7.39215 9.82529C7.06633 9.61059 6.78602 9.33378 6.56722 9.01069C6.34842 8.68761 6.19544 8.32457 6.117 7.94234C6.03857 7.5601 6.03622 7.16615 6.1101 6.78301V6.78301ZM10.4321 15.771C9.9281 18.368 6.5351 19.059 5.0551 16.867C3.5751 14.675 5.4821 11.787 8.0801 12.288C8.46334 12.3621 8.82823 12.5109 9.1539 12.7261C9.47957 12.9412 9.75963 13.2185 9.97807 13.542C10.1965 13.8655 10.349 14.2288 10.427 14.6113C10.5049 14.9938 10.5066 15.3879 10.4321 15.771V15.771ZM11.6921 13.366C10.5401 13.143 10.2301 11.639 11.2011 10.979C12.1711 10.319 13.4571 11.159 13.2411 12.313C13.2091 12.484 13.1435 12.647 13.0483 12.7926C12.953 12.9382 12.8299 13.0636 12.6861 13.1614C12.5422 13.2593 12.3804 13.3277 12.21 13.3629C12.0396 13.398 11.8639 13.399 11.6931 13.366H11.6921ZM17.8901 17.204C17.3891 19.802 13.9971 20.497 12.5141 18.307C11.0301 16.116 12.9351 13.225 15.5341 13.724C15.9174 13.7976 16.2824 13.946 16.6083 14.1608C16.9342 14.3756 17.2146 14.6525 17.4334 14.9757C17.6522 15.2989 17.8052 15.662 17.8835 16.0444C17.9619 16.4267 17.9641 16.8208 17.8901 17.204V17.204ZM15.9231 11.702C13.3251 11.201 12.6301 7.80601 14.8211 6.32201C17.0111 4.83901 19.9021 6.74401 19.4031 9.34201C19.33 9.72566 19.1819 10.0911 18.9673 10.4175C18.7527 10.7438 18.4759 11.0246 18.1526 11.2438C17.8294 11.4631 17.4661 11.6164 17.0835 11.695C16.7009 11.7736 16.3066 11.776 15.9231 11.702V11.702ZM13.5901 23.264L15.8541 23.874C16.8061 24.1266 17.8194 23.9908 18.6713 23.4965C19.5232 23.0022 20.144 22.1899 20.3971 21.238L21.0371 18.836C19.2353 21.2362 16.5584 22.8276 13.5891 23.264H13.5901ZM21.2331 3.59901L18.8701 2.97001C20.0643 3.88855 21.0641 5.03515 21.8115 6.34324C22.5589 7.65132 23.0391 9.09484 23.2241 10.59L23.8741 8.13101C24.1228 7.17974 23.9843 6.16866 23.4889 5.31934C22.9935 4.47003 22.1816 3.85175 21.2311 3.60001L21.2331 3.59901ZM0.672102 13.809L0.131102 15.849C-0.1215 16.801 0.0142757 17.8143 0.50858 18.6662C1.00288 19.5181 1.81526 20.1389 2.7671 20.392L4.8741 20.954C2.62464 19.1855 1.12399 16.6344 0.671102 13.809H0.672102ZM10.3571 0.702008L8.1501 0.126008C7.67839 0.000352025 7.18654 -0.0311044 6.70266 0.0334371C6.21879 0.0979785 5.75238 0.257252 5.33009 0.502153C4.9078 0.747055 4.53793 1.07278 4.2416 1.46071C3.94527 1.84865 3.7283 2.29118 3.6031 2.76301L3.0521 4.84501C4.86982 2.58265 7.48346 1.10053 10.3581 0.702008H10.3571Z" fill="#202A35"/>
</svg>
