<svg width="24" height="24" viewBox="0 0 24 24" fill="none" xmlns="http://www.w3.org/2000/svg">
<g clip-path="url(#clip0)">
<path d="M5.44871 24V7.80725H0.304483V24H5.44871ZM2.87726 5.59507C4.67114 5.59507 5.78775 4.35166 5.78775 2.7978C5.75432 1.2089 4.67121 0 2.9113 0C1.15167 0 0.000976562 1.20893 0.000976562 2.7978C0.000976562 4.35173 1.11731 5.59507 2.84368 5.59507H2.8771H2.87726ZM8.29602 24H13.4402V14.9572C13.4402 14.4732 13.4737 13.9898 13.6095 13.6438C13.9814 12.6769 14.8278 11.6754 16.2489 11.6754C18.1104 11.6754 18.8551 13.1603 18.8551 15.3371V23.9999H23.999V14.7151C23.999 9.74134 21.4611 7.42709 18.0765 7.42709C15.3014 7.42709 14.0829 9.05002 13.406 10.1554H13.4404V7.80691H8.29613C8.36364 9.32635 8.29613 23.9997 8.29613 23.9997L8.29602 24Z" fill="#202A35"/>
</g>
<defs>
<clipPath id="clip0">
<rect width="24" height="24" fill="white"/>
</clipPath>
</defs>
</svg>
