<svg width="24" height="24" viewBox="0 0 24 24" fill="none" xmlns="http://www.w3.org/2000/svg">
<path d="M16.9342 8.52C17.0475 8.57775 17.1525 8.65575 17.238 8.75025L19.5862 7.70325L17.3955 5.53125L16.9027 8.4885L16.9342 8.52ZM12.0592 6.54675C12.1762 6.7185 12.246 6.9135 12.27 7.1205L15.7657 8.60175C15.8707 8.52 15.9915 8.46075 16.1205 8.4255L16.6942 4.87425L14.565 2.64L12.0577 6.49125L12.0592 6.54675ZM23.9917 12.0353L20.2455 8.289L17.6947 9.33225L23.961 11.9963C23.961 11.9963 24.0157 12.0353 23.9917 12.0353ZM23.367 12.645L17.352 10.074C17.2683 10.1848 17.1632 10.2778 17.0431 10.3475C16.9229 10.4172 16.79 10.4621 16.6522 10.4798L16.008 14.4375C16.1992 14.6325 16.3087 14.8943 16.3087 15.1673L19.941 15.9293L23.2732 12.6203V12.558L23.367 12.645ZM15.3982 9.24975L12.1335 7.8585C12.0212 8.0313 11.8661 8.17211 11.6833 8.26726C11.5005 8.36241 11.2962 8.40865 11.0902 8.4015H10.8915L8.18473 12.5775L15.411 9.4485V9.45675C15.4072 9.40082 15.4072 9.34469 15.411 9.28875C15.4147 9.27675 15.411 9.26175 15.399 9.24975H15.3982ZM19.3672 16.5593L16.1722 15.8985C16.0535 16.054 15.8938 16.1732 15.711 16.2428L14.949 20.9655L19.3867 16.5668C19.3867 16.5668 19.3785 16.5908 19.3665 16.5908L19.3672 16.5593ZM14.898 16.2338C14.7466 16.1718 14.6119 16.0752 14.5047 15.9517C14.3975 15.8282 14.3208 15.6813 14.2807 15.5228L8.33173 14.301L8.24548 14.4383L13.6447 22.2465L13.9687 21.9263L14.8867 16.254C14.8867 16.254 14.9175 16.2773 14.898 16.266V16.2338ZM8.45698 13.5818L14.3362 14.793C14.4205 14.6452 14.5397 14.5203 14.6834 14.4292C14.8271 14.3381 14.9909 14.2835 15.1605 14.2703L15.7972 10.3793L15.66 10.2623L8.35198 13.395C8.39098 13.4528 8.42623 13.5158 8.45698 13.5818V13.5818ZM5.99173 14.562L5.86648 14.4383L3.33148 15.48L4.56148 16.7033L5.96023 14.5313L5.99173 14.562ZM7.66423 14.961C7.48748 15.0406 7.29632 15.0833 7.10248 15.0863C6.94573 15.0863 6.79723 15.0623 6.64873 15.012L5.10598 17.2583L11.8717 23.961L13.0627 22.7768L7.66423 14.961ZM6.71473 12.3203C6.81598 12.309 6.92173 12.309 7.02673 12.3203C7.14073 12.3053 7.25773 12.3053 7.37098 12.3203L10.1047 8.07C9.89179 7.84841 9.77274 7.55308 9.77248 7.24575C9.76123 7.1551 9.76123 7.0634 9.77248 6.97275L6.45223 5.4375L3.77998 8.0385L6.71473 12.3203ZM7.01623 4.91775L10.254 6.297C10.4878 6.10172 10.7858 6.00016 11.0902 6.012C11.223 6.01575 11.355 6.03525 11.484 6.07425L14.0122 2.12925L11.922 0.0390015L7.01623 4.85475C7.01623 4.85475 7.00798 4.90575 7.01623 4.91775V4.91775ZM5.80498 13.0823C5.87098 12.9615 5.95273 12.8483 6.04723 12.7463L3.27748 8.613L0.000732422 11.7968L5.80498 13.0823ZM5.54323 13.7813L0.530982 12.7343L2.73373 14.9693L5.51173 13.7895L5.54323 13.7813Z" fill="#202A35"/>
</svg>
