<svg width="24" height="24" viewBox="0 0 24 24" fill="none" xmlns="http://www.w3.org/2000/svg">
<path d="M12 0C5.373 0 0 5.373 0 12C0 18.627 5.372 24 12 24C18.627 24 24 18.627 24 12C24 5.372 18.627 0 12 0ZM11.988 1.256C17.93 1.249 22.743 6.061 22.743 11.997C22.743 17.933 17.93 22.746 11.995 22.745C6.059 22.745 1.246 17.933 1.246 11.997C1.246 6.07 6.045 1.262 11.988 1.256V1.256ZM11.668 5.823C10.4834 5.82226 9.34635 6.28908 8.504 7.122C8.08684 7.52681 7.75529 8.01134 7.52905 8.54679C7.30281 9.08225 7.18649 9.65771 7.187 10.239V11.218L6.631 12.221V13.665C6.63207 14.3106 6.76222 14.9494 7.01381 15.544C7.2654 16.1385 7.63335 16.6767 8.096 17.127C9.03819 18.0515 10.306 18.5687 11.626 18.567H12.522C13.838 18.567 15.102 18.05 16.042 17.127C16.5054 16.6772 16.8739 16.1391 17.1259 15.5445C17.3779 14.9499 17.5081 14.3108 17.509 13.665V12.22L16.959 11.217V10.237C16.9583 9.65577 16.8411 9.08057 16.6144 8.54538C16.3877 8.01019 16.056 7.52586 15.639 7.121C14.7962 6.28759 13.6583 5.82074 12.473 5.822L11.668 5.823ZM11.668 7.793H12.473C13.1288 7.79507 13.7574 8.05514 14.223 8.517C14.688 8.969 14.951 9.59 14.953 10.239L14.956 11.249H9.186V10.239C9.188 9.59 9.451 8.969 9.916 8.517C10.3818 8.05481 11.0108 7.79439 11.667 7.792L11.668 7.793ZM12.132 12.989H12.162C13.696 12.966 14.112 15.093 12.681 15.649H12.595V16.805C12.5955 16.8898 12.5744 16.9734 12.5339 17.0479C12.4933 17.1224 12.4345 17.1854 12.363 17.231H11.852C11.779 17.1844 11.7188 17.1202 11.6769 17.0445C11.635 16.9687 11.6127 16.8836 11.612 16.797V15.65C10.182 15.094 10.597 12.967 12.132 12.99V12.989Z" fill="#202A35"/>
</svg>
