<svg width="24" height="24" viewBox="0 0 24 24" fill="none" xmlns="http://www.w3.org/2000/svg">
<path d="M5.82901 4.53301C5.22901 5.87701 5.46601 8.28501 5.56201 9.96901C4.91401 10.328 4.08201 9.69801 3.61101 9.69801C3.12101 9.69801 2.53601 10.02 2.44401 10.5C2.37801 10.846 2.53301 11.35 3.64501 11.789C4.07501 11.959 5.09801 12.159 5.33501 12.717C5.66801 13.501 3.62501 17.12 0.417014 17.648C0.295896 17.668 0.186443 17.7321 0.109664 17.8279C0.0328858 17.9237 -0.00580687 18.0444 0.00101394 18.167C0.0570139 19.142 2.24301 19.524 3.21201 19.674C3.31101 19.808 3.39101 20.374 3.51801 20.805C3.57501 20.998 3.72201 21.229 4.10001 21.229C4.59301 21.229 5.41201 20.849 6.83801 21.085C8.23601 21.318 9.55001 23.3 12.073 23.3C14.418 23.3 15.817 21.309 17.163 21.085C17.942 20.956 18.611 20.997 19.359 21.143C19.874 21.244 20.336 21.3 20.483 20.794C20.612 20.357 20.691 19.802 20.788 19.671C21.748 19.522 23.944 19.141 23.999 18.166C24.0058 18.0434 23.9671 17.9227 23.8904 17.8269C23.8136 17.7311 23.7041 17.667 23.583 17.647C20.429 17.127 18.324 13.519 18.665 12.716C18.901 12.159 19.917 11.961 20.355 11.788C21.169 11.467 21.577 11.072 21.568 10.615C21.557 10.03 20.853 9.68101 20.335 9.68101C19.808 9.68101 19.051 10.305 18.438 9.96701C18.534 8.26901 18.77 5.87201 18.171 4.52901C17.036 1.98601 14.511 0.700012 11.987 0.700012C9.47901 0.700012 6.97301 1.96801 5.82901 4.53301Z" fill="#202A35"/>
</svg>
