<svg width="200" height="200" viewBox="0 0 200 200" fill="none" xmlns="http://www.w3.org/2000/svg">
<path d="M37.9855 0H19C13.4772 0 9 4.47716 9 10V190C9 195.523 13.4772 200 19 200H180.643C186.165 200 190.643 195.523 190.643 190V10C190.643 4.47715 186.165 0 180.643 0H161.174L161.596 69.1661C161.63 74.7127 157.143 79.2271 151.596 79.2271H92.4299C86.9071 79.2271 82.4299 74.7499 82.4299 69.2271V0H52.4783V146.522C52.4783 152.045 56.9554 156.522 62.4783 156.522H72.43C77.9528 156.522 82.4299 152.045 82.4299 146.522V118.213C82.4299 112.69 86.9071 108.213 92.4299 108.213H151.174C156.697 108.213 161.174 112.69 161.174 118.213V161.014C161.174 166.537 156.697 171.014 151.174 171.014H47.9855C42.4627 171.014 37.9855 166.537 37.9855 161.015V0Z" fill="url(#paint0_linear)"/>
<defs>
<linearGradient id="paint0_linear" x1="262.788" y1="-129.567" x2="-136.677" y2="57.3372" gradientUnits="userSpaceOnUse">
<stop stop-color="#99FFFF"/>
<stop offset="1" stop-color="#CC99FF"/>
</linearGradient>
</defs>
</svg>
