<svg width="24" height="24" viewBox="0 0 24 24" fill="none" xmlns="http://www.w3.org/2000/svg">
<path d="M9.66667 10.7417C10.9917 10.1083 11.6833 9.15 11.6833 7.65833C11.6833 4.71667 9.49167 4 6.9625 4H0V18.7667H7.15833C9.84167 18.7667 12.3625 17.4792 12.3625 14.4792C12.3625 12.625 11.4833 11.2542 9.66667 10.7417V10.7417ZM3.24583 6.52083H6.29167C7.4625 6.52083 8.51667 6.85 8.51667 8.20833C8.51667 9.4625 7.69583 9.96667 6.5375 9.96667H3.24583V6.52083V6.52083ZM6.71667 16.2583H3.24583V12.1917H6.78333C8.2125 12.1917 9.11667 12.7875 9.11667 14.3C9.11667 15.7917 8.0375 16.2583 6.71667 16.2583V16.2583ZM21.6542 6.22917H15.6667V4.775H21.6542V6.22917V6.22917ZM24 13.575C24 10.4125 22.15 7.775 18.7958 7.775C15.5375 7.775 13.325 10.225 13.325 13.4333C13.325 16.7625 15.4208 19.0458 18.7958 19.0458C21.35 19.0458 23.0042 17.8958 23.8 15.45H21.2083C20.9292 16.3625 19.7792 16.8458 18.8875 16.8458C17.1667 16.8458 16.2625 15.8375 16.2625 14.125H23.975C23.9875 13.95 24 13.7625 24 13.575ZM16.2667 12.275C16.3625 10.8708 17.2958 9.99167 18.7042 9.99167C20.1792 9.99167 20.9208 10.8583 21.0458 12.275H16.2667Z" fill="#C8D6E5"/>
</svg>
