<svg width="24" height="24" viewBox="0 0 24 24" fill="none" xmlns="http://www.w3.org/2000/svg">
<g clip-path="url(#clip0)">
<path fill-rule="evenodd" clip-rule="evenodd" d="M11.372 0.189994C11.752 -0.0630059 12.247 -0.0630059 12.628 0.189994L23.492 7.39999C23.809 7.60999 24 7.96499 24 8.34599V15.654C24 16.034 23.81 16.39 23.492 16.601L12.628 23.811C12.248 24.063 11.753 24.063 11.372 23.811L0.508 16.6C0.351885 16.4964 0.223807 16.3559 0.135174 16.1908C0.0465408 16.0258 0.000104234 15.8413 0 15.654L0 8.34599C0 7.96599 0.19 7.60999 0.508 7.39899L11.372 0.189994ZM2.272 10.463V13.521L4.56 11.981L2.272 10.463V10.463ZM6.609 13.341L3.18 15.648L10.864 20.748V16.165L6.61 13.341H6.609ZM13.136 16.165V20.747L20.82 15.647L17.39 13.341L13.136 16.165V16.165ZM19.439 11.982L21.729 13.522V10.462L19.439 11.982V11.982ZM20.81 8.34599L17.4 10.609L13.136 7.74099V3.25299L20.81 8.34599ZM10.864 3.25299V7.73999L6.601 10.608L3.19 8.34599L10.864 3.25299V3.25299ZM12 9.71499L8.65 11.969L12 14.192L15.35 11.969L12 9.71499Z" fill="#C8D6E5"/>
</g>
<defs>
<clipPath id="clip0">
<rect width="24" height="24" fill="white"/>
</clipPath>
</defs>
</svg>
