<svg width="24" height="24" viewBox="0 0 24 24" fill="none" xmlns="http://www.w3.org/2000/svg">
<path d="M23 12C23.0018 13.4489 22.7166 14.8837 22.1606 16.2217C21.6047 17.5597 20.7891 18.7742 19.761 19.7951C18.7414 20.813 17.5311 21.62 16.1994 22.1699C14.8678 22.7198 13.4408 23.0019 12 23C5.92471 23 1.00001 18.0753 1.00001 12C0.996164 9.17947 2.07959 6.46599 4.02501 4.42376C5.05149 3.34059 6.28821 2.47827 7.65948 1.88957C9.03074 1.30087 10.5077 0.998176 12 1.00001C13.4408 0.998143 14.8678 1.28022 16.1994 1.83013C17.5311 2.38004 18.7414 3.18698 19.761 4.20486C20.7891 5.22578 21.6047 6.44032 22.1606 7.77829C22.7166 9.11625 23.0018 10.5511 23 12V12Z" stroke="#C8D6E5" stroke-width="2" stroke-linecap="round" stroke-linejoin="round"/>
<path d="M23.0004 12.0001C21.3955 12.0001 16.968 11.3951 13.0053 13.1347C8.70044 15.0251 5.5836 17.9571 4.2251 19.7809" stroke="#C8D6E5" stroke-width="2" stroke-linecap="round" stroke-linejoin="round"/>
<path d="M7.875 1.79962C9.5965 3.38857 13.353 7.43437 14.75 11.4499C16.147 15.466 16.664 20.4039 16.983 21.8092" stroke="#C8D6E5" stroke-width="2" stroke-linecap="round" stroke-linejoin="round"/>
<path d="M1.08496 10.625C3.16286 10.7504 8.6634 10.8631 12.1834 9.35997C15.7034 7.85682 18.7322 5.09197 19.7712 4.21472" stroke="#C8D6E5" stroke-width="2" stroke-linecap="round" stroke-linejoin="round"/>
<path d="M1.8252 16.1872C2.79447 18.5334 4.54258 20.474 6.77519 21.6822" stroke="#C8D6E5" stroke-width="2" stroke-linecap="round" stroke-linejoin="round"/>
<path d="M1.00001 11.9999C0.996164 9.17942 2.07959 6.46594 4.02501 4.42371" stroke="#C8D6E5" stroke-width="2" stroke-linecap="round" stroke-linejoin="round"/>
<path d="M11.9999 1.00001C10.5076 0.998175 9.03064 1.30087 7.65937 1.88957C6.28811 2.47827 5.05139 3.34059 4.0249 4.42376" stroke="#C8D6E5" stroke-width="2" stroke-linecap="round" stroke-linejoin="round"/>
<path d="M16.3999 1.91522C17.6526 2.46332 18.7923 3.23975 19.7609 4.20487C20.789 5.22579 21.6046 6.44033 22.1605 7.7783C22.7165 9.11627 23.0018 10.5511 22.9999 12C22.9999 13.3547 22.7551 14.6516 22.3069 15.85" stroke="#C8D6E5" stroke-width="2" stroke-linecap="round" stroke-linejoin="round"/>
<path d="M12 23C13.4408 23.0018 14.8678 22.7197 16.1994 22.1698C17.5311 21.6199 18.7414 20.813 19.761 19.7951" stroke="#C8D6E5" stroke-width="2" stroke-linecap="round" stroke-linejoin="round"/>
</svg>
