<svg width="24" height="24" viewBox="0 0 24 24" fill="none" xmlns="http://www.w3.org/2000/svg">
<path d="M21.8912 18.8891C21.5579 20.3422 20.4746 21.159 19.0215 21.4347C17.7455 21.6734 16.683 21.7317 15.6622 20.8938C14.4174 19.8278 14.4018 18.0617 15.5215 16.948C16.4069 16.0888 17.6517 15.9138 19.5215 15.5797C19.8339 15.5214 20.1048 15.4471 20.3339 15.1872C20.6673 14.8054 20.5631 14.9698 20.5631 6.53196C20.5631 5.93797 20.2766 5.77356 19.6777 5.87963C19.2506 5.95388 10.006 7.71463 10.006 7.71463C9.4748 7.83131 9.30814 7.99041 9.30814 8.60031C9.30814 21.0476 9.36543 20.4748 9.17793 21.3021C8.95919 22.2674 8.37586 22.994 7.60505 23.397C6.73007 23.8902 5.14677 24.1077 4.30304 23.9486C2.05309 23.519 1.26144 20.8726 2.78744 19.3558C3.67284 18.4966 4.91761 18.3216 6.78736 17.9875C7.09985 17.9291 7.37068 17.8549 7.59984 17.595C8.12587 16.9851 7.69359 3.98629 7.87067 3.26501C7.91233 2.98923 8.02691 2.75588 8.24045 2.58086C8.4592 2.39524 8.85502 2.28917 8.93835 2.28917C19.5631 0.263242 20.86 0.00337154 21.0423 0.00337154C21.6412 -0.0390563 21.9849 0.32158 21.9849 0.936784C21.9954 19.2073 22.0422 18.2261 21.8912 18.8891V18.8891Z" fill="#C8D6E5"/>
</svg>
