<svg width="24" height="24" viewBox="0 0 24 24" fill="none" xmlns="http://www.w3.org/2000/svg">
<path d="M1.16 16.466C1.209 16.466 1.25 16.427 1.258 16.373L1.528 14.351L1.258 12.282C1.251 12.228 1.208 12.189 1.159 12.189C1.109 12.189 1.065 12.229 1.059 12.282L0.822998 14.351L1.059 16.372C1.065 16.427 1.109 16.466 1.159 16.466H1.16Z" fill="#C8D6E5"/>
<path d="M0.272 15.697C0.32 15.697 0.36 15.661 0.367 15.607L0.576 14.351L0.367 13.071C0.36 13.018 0.32 12.981 0.272 12.981C0.221 12.981 0.182 13.018 0.174 13.071L0 14.351L0.174 15.607C0.182 15.66 0.221 15.697 0.272 15.697V15.697Z" fill="#C8D6E5"/>
<path d="M2.22008 11.897C2.21807 11.8664 2.20461 11.8377 2.18237 11.8165C2.16013 11.7954 2.13075 11.7834 2.10008 11.783C2.06944 11.7832 2.04004 11.7951 2.01792 11.8163C1.99579 11.8375 1.98261 11.8664 1.98108 11.897L1.75708 14.351L1.98108 16.715C1.98311 16.7454 1.99665 16.7739 2.01893 16.7947C2.04122 16.8155 2.07059 16.8271 2.10108 16.827C2.13166 16.8268 2.16103 16.815 2.1833 16.7941C2.20556 16.7731 2.21906 16.7445 2.22108 16.714L2.47508 14.351L2.22108 11.897H2.22008Z" fill="#C8D6E5"/>
<path d="M3.05197 16.922C3.08755 16.9214 3.12161 16.9075 3.1475 16.8831C3.17338 16.8587 3.18924 16.8255 3.19197 16.79L3.43297 14.351L3.19297 11.829C3.19023 11.7933 3.17423 11.76 3.14813 11.7356C3.12203 11.7112 3.08772 11.6974 3.05197 11.697C3.01603 11.6969 2.98144 11.7107 2.95537 11.7355C2.92931 11.7603 2.91377 11.7941 2.91197 11.83L2.69897 14.351L2.91097 16.79C2.91278 16.8261 2.92846 16.8601 2.95474 16.8848C2.98101 16.9096 3.01585 16.9233 3.05197 16.923V16.922Z" fill="#C8D6E5"/>
<path d="M4.0099 16.962C4.05119 16.9621 4.09095 16.9464 4.12106 16.9181C4.15117 16.8899 4.16935 16.8512 4.1719 16.81L4.3979 14.351L4.1719 12.011C4.16911 11.97 4.15082 11.9315 4.12073 11.9035C4.09065 11.8754 4.05103 11.8599 4.0099 11.86C3.96882 11.8599 3.92929 11.8757 3.8995 11.904C3.86972 11.9323 3.85196 11.971 3.8499 12.012L3.6499 14.352L3.8499 16.81C3.85196 16.851 3.86972 16.8897 3.8995 16.918C3.92929 16.9463 3.96882 16.962 4.0099 16.962V16.962Z" fill="#C8D6E5"/>
<path d="M5.36996 14.352L5.15796 10.547C5.15517 10.5005 5.13484 10.4567 5.10105 10.4246C5.06727 10.3925 5.02256 10.3744 4.97596 10.374C4.92928 10.3742 4.88444 10.3922 4.8506 10.4244C4.81677 10.4565 4.79651 10.5004 4.79396 10.547L4.60596 14.352L4.79396 16.81C4.79868 16.855 4.81989 16.8966 4.8535 16.9269C4.88711 16.9571 4.93073 16.9739 4.97596 16.9739C5.02118 16.9739 5.06481 16.9571 5.09842 16.9269C5.13202 16.8966 5.15324 16.855 5.15796 16.81L5.36996 14.352V14.352Z" fill="#C8D6E5"/>
<path d="M5.951 16.987C6.00278 16.9871 6.05259 16.9671 6.09004 16.9314C6.12748 16.8956 6.14968 16.8467 6.152 16.795V16.797L6.351 14.353L6.152 9.67701C6.14839 9.62576 6.12549 9.57779 6.08791 9.54276C6.05034 9.50773 6.00087 9.48825 5.9495 9.48825C5.89812 9.48825 5.84866 9.50773 5.81108 9.54276C5.7735 9.57779 5.7506 9.62576 5.747 9.67701L5.573 14.353L5.748 16.796C5.75083 16.8477 5.77352 16.8964 5.81135 16.9318C5.84917 16.9672 5.8992 16.9866 5.951 16.986V16.987Z" fill="#C8D6E5"/>
<path d="M6.9309 9.07601C6.87354 9.07569 6.81829 9.09759 6.77671 9.13711C6.73514 9.17663 6.71048 9.23071 6.7079 9.28801L6.5459 14.353L6.7079 16.771C6.71049 16.8282 6.73518 16.8822 6.77678 16.9216C6.81838 16.9609 6.87363 16.9826 6.9309 16.982C6.98824 16.9828 7.04363 16.9613 7.08529 16.9218C7.12694 16.8824 7.15156 16.8283 7.1539 16.771L7.3389 14.353L7.1539 9.28801C7.15181 9.23054 7.12731 9.17617 7.08562 9.13654C7.04394 9.09692 6.9884 9.07519 6.9309 9.07601V9.07601Z" fill="#C8D6E5"/>
<path d="M7.9199 16.987C7.98288 16.9881 8.04376 16.9644 8.08941 16.921C8.13506 16.8776 8.16181 16.818 8.1639 16.755V16.757L8.3339 14.353L8.1639 9.11801C8.16181 9.05523 8.1352 8.99578 8.08977 8.9524C8.04433 8.90903 7.98371 8.88519 7.9209 8.88601C7.85795 8.88467 7.79702 8.90833 7.75148 8.95181C7.70593 8.9953 7.67948 9.05506 7.6779 9.11801L7.5249 14.353L7.6779 16.757C7.6799 16.886 7.7879 16.987 7.9209 16.987H7.9199Z" fill="#C8D6E5"/>
<path d="M8.91811 16.985C8.98622 16.9858 9.05193 16.9599 9.10112 16.9128C9.1503 16.8656 9.17902 16.8011 9.18111 16.733V16.735L9.33811 14.354L9.18111 9.25101C9.17851 9.18328 9.14956 9.11924 9.10044 9.07254C9.05131 9.02585 8.98589 9.00018 8.91811 9.00101C8.85017 8.99991 8.78449 9.02546 8.73515 9.07219C8.68581 9.11892 8.65672 9.1831 8.65411 9.25101L8.51611 14.354L8.65511 16.734C8.65811 16.874 8.77411 16.984 8.91811 16.984V16.985Z" fill="#C8D6E5"/>
<path d="M10.349 14.354L10.207 9.43701C10.2044 9.3638 10.1732 9.29453 10.1201 9.24405C10.067 9.19357 9.99624 9.16592 9.92299 9.16701C9.8494 9.16566 9.77824 9.19333 9.7249 9.24405C9.67156 9.29477 9.64034 9.36445 9.63799 9.43801L9.51099 14.354L9.63799 16.72C9.6406 16.7934 9.67193 16.8628 9.72524 16.9133C9.77855 16.9638 9.84957 16.9914 9.92299 16.99C9.99674 16.9911 10.0679 16.963 10.1211 16.9119C10.1743 16.8608 10.2052 16.7907 10.207 16.717V16.72L10.349 14.354V14.354Z" fill="#C8D6E5"/>
<path d="M10.9349 16.994C11.0999 16.994 11.2359 16.864 11.2389 16.704L11.3679 14.355L11.2389 8.50501C11.2363 8.4264 11.203 8.35194 11.1462 8.29755C11.0894 8.24317 11.0135 8.21318 10.9349 8.21401C10.8562 8.21343 10.7804 8.24346 10.7235 8.29777C10.6666 8.35208 10.633 8.4264 10.6299 8.50501L10.5149 14.353L10.6299 16.705C10.6329 16.863 10.7699 16.994 10.9349 16.994V16.994Z" fill="#C8D6E5"/>
<path d="M11.9439 7.66401C11.8597 7.66265 11.7783 7.69434 11.7171 7.75229C11.656 7.81024 11.62 7.88984 11.6169 7.97401L11.4839 14.356L11.6179 16.671C11.621 16.7547 11.6568 16.8337 11.7175 16.8913C11.7783 16.9489 11.8592 16.9804 11.9429 16.979C12.0269 16.9801 12.108 16.9481 12.1686 16.8899C12.2292 16.8317 12.2645 16.752 12.2669 16.668V16.671L12.4129 14.356L12.2669 7.97501C12.2645 7.89119 12.2294 7.81164 12.169 7.75348C12.1086 7.69532 12.0277 7.66319 11.9439 7.66401V7.66401Z" fill="#C8D6E5"/>
<path d="M12.8659 16.996L21.0469 17C22.6779 17 23.9999 15.732 23.9999 14.167C23.9999 12.603 22.6779 11.335 21.0469 11.335C20.6429 11.335 20.2569 11.414 19.9049 11.555C19.6719 9.003 17.4399 7 14.7179 7C14.0529 7 13.4039 7.126 12.8309 7.339C12.6079 7.422 12.5479 7.507 12.5459 7.672V16.661C12.549 16.7463 12.5833 16.8275 12.6423 16.8893C12.7013 16.951 12.7808 16.989 12.8659 16.996V16.996Z" fill="#C8D6E5"/>
</svg>
