<svg width="24" height="24" viewBox="0 0 24 24" fill="none" xmlns="http://www.w3.org/2000/svg">
<path d="M21.7917 5.62246C20.5886 5.36615 19.4991 4.7338 18.6822 3.81761C17.8652 2.90141 17.3634 1.74926 17.25 0.529131V0H13.0998V16.4043C13.0972 17.1305 12.8662 17.8377 12.4393 18.4264C12.0124 19.0152 11.4109 19.4559 10.7196 19.6867C10.0282 19.9174 9.28155 19.9267 8.58464 19.713C7.88772 19.4994 7.27553 19.0736 6.83409 18.4956L6.83168 18.4944L6.83409 18.4956C6.3858 17.9079 6.13712 17.1932 6.12412 16.4553C6.11111 15.7173 6.33446 14.9944 6.76177 14.3914C7.18908 13.7884 7.79813 13.3366 8.50062 13.1016C9.2031 12.8666 9.96249 12.8605 10.6687 13.0843V8.88484C9.09394 8.66803 7.49055 8.94686 6.08278 9.68233C4.675 10.4178 3.53325 11.5731 2.81722 12.9867C2.10119 14.4003 1.8467 16.0015 2.08935 17.5662C2.33199 19.1309 3.05963 20.581 4.17049 21.7136C5.22986 22.7931 6.58819 23.5338 8.07211 23.841C9.55603 24.1483 11.0982 24.0081 12.5018 23.4385C13.9054 22.8689 15.1067 21.8956 15.9524 20.6429C16.7981 19.3902 17.2499 17.915 17.25 16.4055V8.02335C18.9272 9.2176 20.9382 9.85796 23 9.85431V5.74725C22.594 5.74775 22.189 5.70592 21.7917 5.62246V5.62246Z" fill="#C8D6E5"/>
</svg>
