<svg width="24" height="24" viewBox="0 0 24 24" fill="none" xmlns="http://www.w3.org/2000/svg">
<g clip-path="url(#clip0)">
<path d="M24 4.37236C23.116 4.77326 22.1663 5.04414 21.1679 5.16658C22.198 4.53575 22.9687 3.5429 23.3362 2.37329C22.3683 2.96162 21.309 3.37575 20.2044 3.59766C19.4616 2.78596 18.4777 2.24796 17.4054 2.06717C16.3332 1.88638 15.2327 2.07293 14.2746 2.59785C13.3166 3.12277 12.5548 3.95669 12.1073 4.97014C11.6599 5.98359 11.5519 7.11988 11.8001 8.20257C9.839 8.1018 7.92049 7.58015 6.16912 6.67147C4.41774 5.76279 2.87264 4.48739 1.63408 2.92805C1.21058 3.67567 0.967069 4.54248 0.967069 5.46563C0.966596 6.29667 1.16657 7.11499 1.54925 7.84798C1.93193 8.58096 2.48548 9.20594 3.16078 9.66748C2.37761 9.64198 1.61171 9.4254 0.926837 9.03579V9.1008C0.926758 10.2664 1.32072 11.3961 2.04189 12.2982C2.76305 13.2004 3.76699 13.8194 4.88336 14.0503C4.15683 14.2515 3.39512 14.2811 2.65576 14.137C2.97074 15.1399 3.58427 16.0169 4.41049 16.6452C5.2367 17.2735 6.23422 17.6217 7.26341 17.641C5.51631 19.0446 3.35865 19.806 1.13753 19.8026C0.744078 19.8027 0.350962 19.7792 -0.0397949 19.7322C2.21477 21.2157 4.83925 22.003 7.51962 22C16.593 22 21.5532 14.3092 21.5532 7.63915C21.5532 7.42245 21.548 7.20358 21.5384 6.98687C22.5032 6.27281 23.3361 5.38858 23.9979 4.37562L24 4.37236V4.37236Z" fill="#C8D6E5"/>
</g>
<defs>
<clipPath id="clip0">
<rect width="24" height="24" fill="white"/>
</clipPath>
</defs>
</svg>
